<?xml version="1.0" encoding="utf-8"?>
<!-- Generator: Adobe Illustrator 25.4.1, SVG Export Plug-In . SVG Version: 6.00 Build 0)  -->
<svg version="1.1" id="Layer_1" xmlns="http://www.w3.org/2000/svg" xmlns:xlink="http://www.w3.org/1999/xlink" x="0px" y="0px"
	 viewBox="0 0 185 38" style="enable-background:new 0 0 185 38;" xml:space="preserve" height="30px">
<style type="text/css">
	.st0{fill:#CE202F;}
	.st1{fill:#A2A9AD;}
</style>
<g>
	<path class="st0" d="M24.6,35.6l-6.4-9.3h-0.4H11v9.3H3.3V2.1h14.5c8.9,0,14.5,4.6,14.5,12.1c0,5-2.5,8.7-6.9,10.6l7.5,10.7H24.6z
		 M17.3,8.4H11v11.7h6.3c4.7,0,7.1-2.2,7.1-5.8C24.4,10.6,22.1,8.4,17.3,8.4"/>
</g>
<path class="st0" d="M52.7,9.7L58,22.5H47.4L52.7,9.7z M48.9,2.1L34,35.6h7.9l3-7.2h15.5l3,7.2h8.1l-15-33.4H48.9z"/>
<g>
	<path class="st0" d="M102.2,14.2c0,7.5-5.6,12.1-14.5,12.1h-6.7v9.2h-7.7V2.1h14.5C96.6,2.1,102.2,6.7,102.2,14.2 M94.3,14.2
		c0-3.7-2.4-5.8-7.1-5.8h-6.3V20h6.3C92,20,94.3,17.9,94.3,14.2"/>
</g>
<rect x="105" y="2.1" class="st0" width="7.7" height="33.4"/>
<g>
	<path class="st0" d="M131.4,2.1h-15.2v33.4h15.2c3.2,0,6.2-0.6,8.7-1.7l9-20.2C146.9,6.5,140.3,2.1,131.4,2.1 M131,29.2h-7.1V8.5
		h7.1c6.6,0,11,4,11,10.4C142,25.2,137.6,29.2,131,29.2"/>
</g>
<path class="st1" d="M154.7,18.6l3.5,8.4h-6.9L154.7,18.6z M152.2,13.7l-3.4,7.5L143,34.5l-0.5,1.1h5.2l1.9-4.7h10.2l1.9,4.7h5.3
	l-9.8-21.9H152.2z"/>
<rect x="169.3" y="13.7" class="st1" width="5.1" height="21.9"/>
<g>
	<path class="st1" d="M176.6,33.3c0-0.4,0.1-0.8,0.3-1.2c0.2-0.4,0.5-0.7,0.8-0.9c0.4-0.2,0.7-0.3,1.2-0.3c0.4,0,0.8,0.1,1.2,0.3
		c0.4,0.2,0.6,0.5,0.8,0.9c0.2,0.4,0.3,0.8,0.3,1.2c0,0.4-0.1,0.8-0.3,1.2c-0.2,0.4-0.5,0.7-0.8,0.9c-0.4,0.2-0.7,0.3-1.2,0.3
		c-0.4,0-0.8-0.1-1.2-0.3c-0.4-0.2-0.6-0.5-0.8-0.9C176.7,34.1,176.6,33.7,176.6,33.3z M177,33.3c0,0.4,0.1,0.7,0.3,1
		c0.2,0.3,0.4,0.6,0.7,0.7c0.3,0.2,0.6,0.3,1,0.3c0.3,0,0.7-0.1,1-0.3c0.3-0.2,0.5-0.4,0.7-0.7c0.2-0.3,0.3-0.7,0.3-1
		c0-0.4-0.1-0.7-0.3-1s-0.4-0.6-0.7-0.7c-0.3-0.2-0.6-0.3-1-0.3c-0.3,0-0.7,0.1-1,0.3c-0.3,0.2-0.5,0.4-0.7,0.7
		C177.1,32.6,177,32.9,177,33.3z M178.5,33.5v1.1H178v-2.7h0.9c0.3,0,0.6,0.1,0.8,0.2c0.2,0.1,0.3,0.3,0.3,0.6
		c0,0.3-0.1,0.5-0.4,0.6c0.3,0.1,0.4,0.3,0.4,0.7v0.2c0,0.2,0,0.3,0.1,0.4v0.1h-0.5c0-0.1,0-0.2,0-0.4c0-0.2,0-0.3,0-0.4
		c0-0.2-0.2-0.3-0.4-0.3H178.5z M178.5,33.1h0.5c0.2,0,0.3,0,0.4-0.1c0.1-0.1,0.1-0.2,0.1-0.3c0-0.2,0-0.3-0.1-0.3
		c-0.1-0.1-0.2-0.1-0.4-0.1h-0.4V33.1z"/>
</g>
</svg>
