<svg xmlns="http://www.w3.org/2000/svg" width="166" height="44" viewBox="0 0 166 44">
  <g fill="none" fill-rule="evenodd">
    <rect width="166" height="44"/>
    <path fill="#FFF" d="M14.457,0 C20.028,0 24.145,1.034 26.807,3.1 C29.467,5.167 30.799,8.276 30.799,12.43 C30.799,18.248 27.755,22.18 21.667,24.226 L34,44 L27.756,44 L16.758,25.702 L7.281,25.702 L7.281,44 L2,44 L2,0 L14.457,0 Z M57.254,0 L75,44 L69.568,44 L63.95,30.062 L45.864,30.062 L40.309,44 L35,44 L52.84,0 L57.254,0 Z M87.856,0 C99.285,0 105,4.273 105,12.82 C105,17.274 103.42,20.7 100.26,23.098 C97.102,25.496 92.58,26.695 86.698,26.695 L81.318,26.695 L81.318,44 L76,44 L76,0 L87.856,0 Z M117,0 L117,44 L112,44 L112,0 L117,0 Z M138.82,0 C145.833,0 151.283,1.896 155.17,5.688 C158.957333,9.38276923 160.899081,14.5072978 160.996168,21.0578857 L161,21.579 C161,28.842 158.978,34.394 154.938,38.237 C150.898,42.078 145.081,44 137.495,44 L125,44 L125,0 L138.82,0 Z M163.01,38 C163.804475,37.991102 164.569107,38.3022955 165.131579,38.8634508 C165.694051,39.4246061 166.007036,40.188506 166,40.983 C166,42.673 164.7,44 163.01,44 C162.208759,44.0056648 161.438792,43.6893956 160.872873,43.1221607 C160.306954,42.5549258 159.992474,41.7842259 160,40.983 C159.999698,40.1870758 160.317595,39.42406 160.882928,38.8637979 C161.448262,38.3035357 162.214111,37.9925265 163.01,38 Z M163.009,38.601 C161.709,38.601 160.748,39.674 160.748,40.983 C160.748,42.308 161.71,43.363 163.026,43.363 C164.309,43.363 165.253,42.308 165.253,41.001 C165.253,39.674 164.309,38.601 163.009,38.601 Z M162.991,39.473 C163.543,39.473 163.793,39.565 164.005,39.692 C164.165,39.819 164.29,40.056 164.29,40.346 C164.29,40.675 164.042,40.93 163.685,41.036 L163.685,41.073 C163.971,41.183 164.131,41.401 164.221,41.801 L164.275189,42.0655432 L164.275189,42.0655432 L164.322663,42.2625309 C164.360358,42.4021605 164.394556,42.485 164.434,42.545 L163.702,42.545 C163.664286,42.4987143 163.633,42.4223061 163.602554,42.3227813 L163.541125,42.0949854 L163.541125,42.0949854 L163.472,41.818 L163.472,41.818 C163.419,41.49 163.242,41.345 162.866,41.345 L162.546,41.345 L162.546,42.545 L161.869,42.545 L161.869,39.565 C162.239132,39.4980238 162.614902,39.467212 162.991,39.473 Z M162.939,39.965 L162.838464,39.966912 L162.838464,39.966912 L162.675408,39.979904 L162.675408,39.979904 L162.564,40 L162.564,40 L162.564,40.855 L162.884,40.855 C163.258,40.855 163.561,40.728 163.561,40.419 C163.561,40.146 163.365,39.965 162.939,39.965 Z M137.865,4.425 L130.243,4.425 L130.243,39.575 L136.63,39.575 C142.881,39.575 147.58,38.076 150.725,35.076 C153.873,32.076 155.447,27.637 155.447,21.759 C155.447,16.021 153.972,11.697 151.019,8.788 C148.069,5.88 143.684,4.425 137.865,4.425 Z M54.969,5.575 C54.517,7.493 53.869,9.601 53.025,11.9 L47.715,25.477 L62.315,25.477 L57.068,11.9 C56.389,10.181 55.688,8.074 54.969,5.575 Z M87.262,4.423 L81.318,4.423 L81.318,22.3 L86.106,22.3 C90.818,22.3 94.227,21.57 96.336,20.104 C98.44,18.64 99.494,16.291 99.494,13.062 C99.494,10.152 98.504,7.985 96.522,6.561 C94.541,5.135 91.455,4.423 87.262,4.423 Z M14.148,4.484 L7.28,4.484 L7.28,21.308 L14.521,21.308 C18.248,21.308 20.981,20.59 22.721,19.156 C24.461,17.721 25.331,15.571 25.331,12.7 C25.331,9.792 24.445,7.694 22.675,6.41 C20.903,5.127 18.062,4.484 14.148,4.484 Z"/>
  </g>
</svg>
